<?xml version="1.0" encoding="UTF-8"?>
<svg width="900" height="520" viewBox="0 0 900 520" xmlns="http://www.w3.org/2000/svg">
  <style>
    .box { fill: #0b3c5d; stroke: #328cc1; stroke-width: 2; rx: 14; ry: 14; }
    .label { font-family: Arial, sans-serif; font-size: 14px; fill: #ffffff; }
    .small { font-size: 12px; }
    .arrow { stroke: #328cc1; stroke-width: 3; fill: none; marker-end: url(#arrowhead); }
  </style>
  <defs>
    <marker id="arrowhead" markerWidth="10" markerHeight="7" refX="10" refY="3.5" orient="auto">
      <polygon points="0 0, 10 3.5, 0 7" fill="#328cc1" />
    </marker>
  </defs>

  <!-- Frontend -->
  <rect x="40" y="40" width="200" height="90" class="box" />
  <text x="140" y="70" text-anchor="middle" class="label">Streamlit UI</text>
  <text x="140" y="90" text-anchor="middle" class="label small">(User input / display)</text>

  <!-- STT -->
  <rect x="280" y="30" width="200" height="90" class="box" />
  <text x="380" y="60" text-anchor="middle" class="label">Speech-to-Text</text>
  <text x="380" y="80" text-anchor="middle" class="label small">app/agent/stt.py</text>

  <!-- Safety -->
  <rect x="520" y="30" width="200" height="90" class="box" />
  <text x="620" y="60" text-anchor="middle" class="label">Safety Checks</text>
  <text x="620" y="80" text-anchor="middle" class="label small">app/agent/safety.py</text>

  <!-- Retrieval -->
  <rect x="280" y="170" width="200" height="90" class="box" />
  <text x="380" y="200" text-anchor="middle" class="label">Retrieval</text>
  <text x="380" y="220" text-anchor="middle" class="label small">app/agent/retrieval.py</text>
  <text x="380" y="240" text-anchor="middle" class="label small">faiss_index/index.faiss</text>

  <!-- Generation -->
  <rect x="520" y="170" width="200" height="90" class="box" />
  <text x="620" y="200" text-anchor="middle" class="label">LLM Generation</text>
  <text x="620" y="220" text-anchor="middle" class="label small">app/agent/generation.py</text>

  <!-- TTS -->
  <rect x="280" y="310" width="200" height="90" class="box" />
  <text x="380" y="340" text-anchor="middle" class="label">Text-to-Speech</text>
  <text x="380" y="360" text-anchor="middle" class="label small">app/agent/tts.py</text>

  <!-- Output -->
  <rect x="520" y="310" width="200" height="90" class="box" />
  <text x="620" y="340" text-anchor="middle" class="label">Response Output</text>
  <text x="620" y="360" text-anchor="middle" class="label small">Streamlit + audio</text>

  <!-- Arrows -->
  <path class="arrow" d="M240 85 L280 85" />
  <path class="arrow" d="M480 85 L520 85" />
  <path class="arrow" d="M380 120 L380 170" />
  <path class="arrow" d="M620 120 L620 170" />
  <path class="arrow" d="M480 215 L520 215" />
  <path class="arrow" d="M480 350 L520 350" />
  <path class="arrow" d="M380 260 L380 310" />
  <path class="arrow" d="M620 260 L620 310" />

  <!-- Notes -->
  <text x="450" y="470" class="label small" text-anchor="middle">Orchestration: <tspan font-weight="bold">app/agent/pipeline.py</tspan></text>
  <text x="450" y="490" class="label small" text-anchor="middle">Configuration: <tspan font-weight="bold">app/agent/config.py</tspan></text>
</svg>
