<?xml version="1.0" encoding="UTF-8"?>
<svg width="900" height="620" viewBox="0 0 900 620" xmlns="http://www.w3.org/2000/svg">
  <style>
    .box { fill: #0b3c5d; stroke: #328cc1; stroke-width: 2; rx: 14; ry: 14; }
    .label { font-family: Arial, sans-serif; font-size: 14px; fill: #ffffff; }
    .small { font-size: 12px; }
    .arrow { stroke: #328cc1; stroke-width: 3; fill: none; marker-end: url(#arrowhead); }
  </style>
  <defs>
    <marker id="arrowhead" markerWidth="10" markerHeight="7" refX="10" refY="3.5" orient="auto">
      <polygon points="0 0, 10 3.5, 0 7" fill="#328cc1" />
    </marker>
  </defs>

  <!-- Frontend -->
  <rect x="40" y="40" width="200" height="90" class="box" />
  <text x="140" y="70" text-anchor="middle" class="label">Streamlit UI</text>
  <text x="140" y="90" text-anchor="middle" class="label small">(User input / display)</text>

  <!-- Conversation memory -->
  <rect x="40" y="150" width="200" height="70" class="box" />
  <text x="140" y="175" text-anchor="middle" class="label">Session memory</text>
  <text x="140" y="195" text-anchor="middle" class="label small">st.session_state.chat_history</text>

  <!-- STT -->
  <rect x="280" y="30" width="200" height="90" class="box" />
  <text x="380" y="60" text-anchor="middle" class="label">Speech-to-Text</text>
  <text x="380" y="80" text-anchor="middle" class="label small">app/agent/stt.py</text>

  <!-- Safety -->
  <rect x="520" y="30" width="200" height="90" class="box" />
  <text x="620" y="60" text-anchor="middle" class="label">Safety Screening</text>
  <text x="620" y="80" text-anchor="middle" class="label small">app/agent/safety.py</text>

  <!-- Translation -->
  <rect x="520" y="130" width="200" height="70" class="box" />
  <text x="620" y="155" text-anchor="middle" class="label">Query Translation</text>
  <text x="620" y="175" text-anchor="middle" class="label small">app/agent/generation.py</text>

  <!-- Retrieval -->
  <rect x="280" y="210" width="200" height="90" class="box" />
  <text x="380" y="240" text-anchor="middle" class="label">Retrieval</text>
  <text x="380" y="260" text-anchor="middle" class="label small">app/agent/retrieval.py</text>
  <text x="380" y="280" text-anchor="middle" class="label small">faiss_index/index.faiss</text>

  <!-- Web Search -->
  <rect x="520" y="210" width="200" height="90" class="box" />
  <text x="620" y="240" text-anchor="middle" class="label">Web Search</text>
  <text x="620" y="260" text-anchor="middle" class="label small">app/agent/web_search.py</text>

  <!-- Agent (tool orchestration) -->
  <rect x="280" y="320" width="200" height="70" class="box" />
  <text x="380" y="345" text-anchor="middle" class="label">Agent (optional)</text>
  <text x="380" y="365" text-anchor="middle" class="label small">LangChain react agent</text>

  <!-- Generation -->
  <rect x="520" y="320" width="200" height="90" class="box" />
  <text x="620" y="350" text-anchor="middle" class="label">LLM Generation</text>
  <text x="620" y="370" text-anchor="middle" class="label small">app/agent/generation.py</text>

  <!-- TTS -->
  <rect x="280" y="430" width="200" height="90" class="box" />
  <text x="380" y="460" text-anchor="middle" class="label">Text-to-Speech</text>
  <text x="380" y="480" text-anchor="middle" class="label small">app/agent/tts.py</text>

  <!-- Output -->
  <rect x="520" y="430" width="200" height="90" class="box" />
  <text x="620" y="460" text-anchor="middle" class="label">Response Output</text>
  <text x="620" y="480" text-anchor="middle" class="label small">Streamlit + audio</text>

  <!-- Arrows -->
  <path class="arrow" d="M240 85 L280 85" />
  <path class="arrow" d="M240 170 L280 170" />
  <path class="arrow" d="M240 195 L280 195" />
  <path class="arrow" d="M480 85 L520 85" />
  <path class="arrow" d="M480 145 L520 145" />
  <path class="arrow" d="M480 215 L520 215" />
  <path class="arrow" d="M480 255 L520 255" />
  <path class="arrow" d="M380 260 L380 320" />
  <path class="arrow" d="M620 260 L620 320" />
  <path class="arrow" d="M380 390 L380 430" />
  <path class="arrow" d="M620 390 L620 430" />
  <path class="arrow" d="M480 240 L520 240" />
  <path class="arrow" d="M480 270 L520 270" />

  <!-- Notes -->
  <text x="450" y="580" class="label small" text-anchor="middle">Orchestration: <tspan font-weight="bold">app/agent/pipeline.py</tspan></text>
  <text x="450" y="600" class="label small" text-anchor="middle">Configuration: <tspan font-weight="bold">app/agent/config.py</tspan></text>
</svg>
